<svg xmlns="http://www.w3.org/2000/svg" viewBox="0 0 500 500"><g id="freepik--background-complete--inject-233"><path d="M51.54,329.78c9.62,0,171.55,1.07,181.73.75.73,0,1.12-1.1.4-1.46-6.42-3.18-13.69-2.54-20.36-4.79-3.92-1.32-6.33-3.88-9.05-6.82a18.81,18.81,0,0,0-8.43-5.51,17.83,17.83,0,0,0-9.17-.28c-3.29.78-6.14,2.66-9.28,3.85-7.78,2.93-15.34.14-20.89-5.61-4.58-4.75-9.08-9.22-15.31-11.78-5.22-2.14-11-2.59-16.22-.22-5.94,2.69-10,8.1-15.6,11.35-6.61,3.87-14.52,3-21.82,4.12s-12.92,7.32-19.32,10.86a13.64,13.64,0,0,1-7,2.16,40.61,40.61,0,0,1-4.25-.6c-2.21-.27-4.3-.21-5.78,1.63C50.84,327.88,50.91,329.78,51.54,329.78Z" style="fill:#ebebeb"></path><path d="M61.81,77.44c7,0,125.25.78,132.68.54.53,0,.82-.8.29-1.06-4.69-2.32-10-1.85-14.87-3.49-2.86-1-4.62-2.84-6.61-5a13.66,13.66,0,0,0-6.15-4,13.12,13.12,0,0,0-6.7-.21c-2.4.58-4.48,2-6.77,2.82-5.68,2.14-11.2.1-15.25-4.1-3.35-3.46-6.63-6.73-11.18-8.6a14.82,14.82,0,0,0-11.84-.16c-4.34,2-7.31,5.91-11.39,8.29-4.83,2.82-10.6,2.15-15.93,3S78.66,70.81,74,73.39A9.9,9.9,0,0,1,68.88,75c-1,0-2.07-.31-3.1-.43-1.61-.2-3.14-.16-4.23,1.19C61.29,76.05,61.35,77.44,61.81,77.44Z" style="fill:#ebebeb"></path><path d="M312.84,446.4c7,0,125.25.78,132.68.55.54,0,.82-.81.29-1.07-4.68-2.32-10-1.85-14.86-3.49-2.87-1-4.62-2.84-6.61-5a13.74,13.74,0,0,0-6.15-4,12.91,12.91,0,0,0-6.7-.21c-2.4.57-4.48,1.94-6.77,2.81-5.68,2.14-11.2.1-15.25-4.1-3.35-3.46-6.64-6.73-11.18-8.6a14.89,14.89,0,0,0-11.85-.16c-4.33,2-7.31,5.92-11.38,8.29-4.83,2.82-10.61,2.16-15.94,3s-9.43,5.34-14.1,7.93a10.12,10.12,0,0,1-5.1,1.58c-1.05,0-2.07-.31-3.11-.44-1.61-.2-3.14-.16-4.22,1.19C312.33,445,312.38,446.4,312.84,446.4Z" style="fill:#ebebeb"></path><path d="M315.77,154.91c7,0,125.25.77,132.68.54.53,0,.82-.8.29-1.07-4.69-2.32-10-1.85-14.87-3.49-2.86-1-4.62-2.84-6.61-5a13.58,13.58,0,0,0-6.15-4,13,13,0,0,0-6.7-.21c-2.39.57-4.48,1.94-6.77,2.81-5.67,2.14-11.19.11-15.25-4.1-3.34-3.46-6.63-6.73-11.18-8.59a14.82,14.82,0,0,0-11.84-.17c-4.34,2-7.31,5.92-11.39,8.29-4.83,2.83-10.6,2.16-15.93,3s-9.43,5.34-14.11,7.93a10.09,10.09,0,0,1-5.1,1.58c-1,0-2.07-.31-3.1-.44-1.61-.2-3.14-.15-4.22,1.19C315.25,153.52,315.31,154.91,315.77,154.91Z" style="fill:#ebebeb"></path><path d="M206.6,205.15c.13.39,186.34,0,184,0-1.08,0,1.62-1.61.57-2.12-6.06-3-12.69-3.1-19.29-3.7-3.85-.35-7.81-.91-11.27-2.74s-5.7-5-8.19-8a35,35,0,0,0-31.8-12.05c-13.24,2.07-23.67,12.16-36.93,14-8,1.12-15.51-2-23.29-3.05-6.41-.89-11.75.36-17.49,3.2-4.2,2.08-8.08,3.83-12.83,4.16-3.64.26-7.3-.16-11-.2A24.53,24.53,0,0,0,203,201.14C202.39,201.66,200.52,205.15,206.6,205.15Z" style="fill:#ebebeb"></path><path d="M171.36,178.86a36.77,36.77,0,0,0-4.47-2.27,19.53,19.53,0,0,0-4.95-1.49,4.5,4.5,0,0,0-1.57.07,2.2,2.2,0,0,0-.49.2,3.19,3.19,0,0,0-.33.2,6.23,6.23,0,0,0-.56.41,20.53,20.53,0,0,0-2,1.73,50.21,50.21,0,0,0-3.4,3.75l1.27-.36a40.27,40.27,0,0,0-5-1.42,22.89,22.89,0,0,0-2.67-.36,9.79,9.79,0,0,0-1.43,0,5.84,5.84,0,0,0-.78.14,5.17,5.17,0,0,0-.79.31,9,9,0,0,0-2.15,1.81,24.14,24.14,0,0,0-1.65,2,31.79,31.79,0,0,0-2.69,4.42c1.19-1.25,2.34-2.5,3.55-3.68a24.06,24.06,0,0,1,1.84-1.68,8.19,8.19,0,0,1,1.9-1.29,4.71,4.71,0,0,1,2-.06,19.15,19.15,0,0,1,2.37.48c1.59.39,3.21.9,4.76,1.43l.77.27.5-.62c1-1.27,2.1-2.51,3.18-3.7a22,22,0,0,1,1.66-1.68,4.18,4.18,0,0,1,.42-.34l.19-.15s0,0,.08,0a2.61,2.61,0,0,1,.89-.12,24.57,24.57,0,0,1,4.71.77C168.14,178,169.74,178.45,171.36,178.86Z" style="fill:#dbdbdb"></path><path d="M140,199.83a31.46,31.46,0,0,0-2.72-3.16A16.2,16.2,0,0,0,134,194a3.36,3.36,0,0,0-1.23-.44,1.59,1.59,0,0,0-.44,0,2.24,2.24,0,0,0-.31.05c-.21,0-.38.09-.57.14a20.37,20.37,0,0,0-2,.71c-1.31.54-2.54,1.16-3.79,1.81l1.09.13a31.62,31.62,0,0,0-3.43-2.68,17.51,17.51,0,0,0-1.94-1.12,7.89,7.89,0,0,0-1.1-.45,5.51,5.51,0,0,0-.64-.14,4.21,4.21,0,0,0-.71,0,7.42,7.42,0,0,0-2.22.71,20.59,20.59,0,0,0-1.91,1,29,29,0,0,0-3.45,2.55c1.3-.58,2.58-1.18,3.88-1.7.65-.27,1.29-.52,1.94-.72a7.2,7.2,0,0,1,1.86-.39,3.88,3.88,0,0,1,1.58.59,16.79,16.79,0,0,1,1.67,1.12c1.09.8,2.17,1.7,3.2,2.6l.51.45.58-.33c1.17-.65,2.4-1.26,3.6-1.83a17.53,17.53,0,0,1,1.81-.77l.43-.13.19,0s0,0,.08,0a1.87,1.87,0,0,1,.72.19,21,21,0,0,1,3.37,2.07C137.84,198.16,138.92,199,140,199.83Z" style="fill:#dbdbdb"></path><path d="M388.7,80.8a30.78,30.78,0,0,0-2.37-3.43,16.08,16.08,0,0,0-3-3,3.75,3.75,0,0,0-1.17-.56,2,2,0,0,0-.44-.06l-.32,0a5.21,5.21,0,0,0-.57.08,19.69,19.69,0,0,0-2.11.49c-1.36.39-2.65.88-4,1.39l1.07.25a30.87,30.87,0,0,0-3.13-3,16,16,0,0,0-1.8-1.32,8,8,0,0,0-1.05-.56,5.64,5.64,0,0,0-.62-.21,5.35,5.35,0,0,0-.7-.08,7.63,7.63,0,0,0-2.29.47,18.88,18.88,0,0,0-2,.84,28.49,28.49,0,0,0-3.71,2.16c1.36-.44,2.7-.9,4.05-1.28.66-.19,1.34-.38,2-.5a6.81,6.81,0,0,1,1.89-.19A3.92,3.92,0,0,1,370,73a14,14,0,0,1,1.54,1.29c1,.91,2,1.92,2.9,2.92l.47.5.61-.25c1.23-.53,2.51-1,3.77-1.45a18.19,18.19,0,0,1,1.88-.57,4.14,4.14,0,0,1,.44-.08l.2,0s0,0,.07,0a2.24,2.24,0,0,1,.7.27A21,21,0,0,1,385.67,78C386.69,78.9,387.68,79.86,388.7,80.8Z" style="fill:#dbdbdb"></path><path d="M223.63,290.75a44.64,44.64,0,0,0-5.15-3.53,24,24,0,0,0-5.85-2.63,5.37,5.37,0,0,0-1.95-.17,3,3,0,0,0-.64.16l-.43.19c-.28.13-.51.28-.76.41a29.9,29.9,0,0,0-2.68,1.82c-1.7,1.28-3.25,2.65-4.81,4.07l1.63-.23a48.13,48.13,0,0,0-6-2.57,26.81,26.81,0,0,0-3.23-.88,12.09,12.09,0,0,0-1.76-.22,6.53,6.53,0,0,0-1,0,7.4,7.4,0,0,0-1,.26,11.42,11.42,0,0,0-2.94,1.88,31.7,31.7,0,0,0-2.37,2.25,40.92,40.92,0,0,0-4,5c1.66-1.34,3.29-2.7,5-3.95a29.9,29.9,0,0,1,2.54-1.78,10.32,10.32,0,0,1,2.55-1.28,5.9,5.9,0,0,1,2.5.25,22.76,22.76,0,0,1,2.84,1c1.9.74,3.81,1.63,5.64,2.54l.91.45.72-.69c1.45-1.39,3-2.74,4.51-4a27,27,0,0,1,2.32-1.81c.2-.12.39-.26.58-.35l.26-.15s0,0,.1,0a3,3,0,0,1,1.12,0,30,30,0,0,1,5.68,1.71C219.81,289.17,221.7,290,223.63,290.75Z" style="fill:#dbdbdb"></path></g><g id="freepik--Clouds--inject-233"><path d="M108.21,407.33c7.67,0,136.8.85,144.91.59.59,0,.9-.87.32-1.16-5.11-2.53-10.92-2-16.23-3.82-3.13-1.05-5.05-3.1-7.22-5.44a15,15,0,0,0-6.72-4.39,14.2,14.2,0,0,0-7.32-.23c-2.62.63-4.89,2.13-7.39,3.07-6.2,2.34-12.23.12-16.66-4.47-3.65-3.78-7.25-7.35-12.21-9.39a16.22,16.22,0,0,0-12.94-.18c-4.73,2.15-8,6.46-12.43,9.06-5.28,3.08-11.58,2.35-17.41,3.28s-10.29,5.84-15.4,8.66a11,11,0,0,1-5.57,1.73c-1.14,0-2.26-.34-3.39-.48-1.76-.22-3.43-.17-4.61,1.3C107.65,405.81,107.71,407.33,108.21,407.33Z" style="fill:#fff"></path><path d="M108.21,407.33c38.27.13,103.13.57,140.77.52l2.43,0,1.21,0a5.46,5.46,0,0,0,.58,0,.56.56,0,0,0,.37-.78c-5.52-3-12.36-1.91-18-4.66-3-1.46-4.86-4.28-7.29-6.39a13.81,13.81,0,0,0-8.82-3.35c-3.3-.16-6.27,1.3-9.16,2.72a14.85,14.85,0,0,1-9.49,1.36c-6.74-1.18-10.35-7.49-15.49-11.28a23.07,23.07,0,0,0-8.63-4.24c-12.55-2.95-15.82,7.95-25.58,11.25-4.68,1.47-9.64,1.08-14.42,1.9s-8.62,4.36-12.6,7c-2.66,1.72-5.63,3.68-8.94,3.22a17.34,17.34,0,0,0-4.81-.45c-1.12.19-2.58.87-2.52,2.17,0,.35,0,.92.44,1Zm0,0c-.42-.1-.41-.68-.45-1-.07-1.3,1.44-2,2.53-2.18a17.72,17.72,0,0,1,4.81.44c3.31.45,6.27-1.51,8.92-3.23,4-2.68,7.75-6.13,12.61-7.05s9.74-.45,14.4-1.92c9.78-3.34,13-14.24,25.64-11.31a23.23,23.23,0,0,1,8.68,4.25c5.14,3.77,8.74,10.06,15.45,11.23a14.64,14.64,0,0,0,9.37-1.37c2.89-1.42,5.93-2.91,9.24-2.75a14.08,14.08,0,0,1,9,3.39c2.43,2.12,4.29,4.9,7.25,6.35,5.65,2.74,12.68,1.54,18.13,4.74a.78.78,0,0,1-.51,1.13c-.4,0-1.42,0-1.84,0H249c-37.4,0-102.77-.54-140.77-.74Z" style="fill:#263238"></path><path d="M342.73,85.74c4.42,0,78.67.49,83.33.34.34,0,.52-.5.18-.66-2.94-1.46-6.27-1.17-9.33-2.2a9.86,9.86,0,0,1-4.15-3.13,8.56,8.56,0,0,0-3.87-2.52,8.09,8.09,0,0,0-4.2-.13,35.86,35.86,0,0,0-4.25,1.76c-3.57,1.35-7,.07-9.58-2.57-2.1-2.18-4.17-4.23-7-5.4a9.28,9.28,0,0,0-7.43-.1c-2.73,1.23-4.6,3.71-7.15,5.2-3,1.78-6.66,1.36-10,1.89s-5.92,3.36-8.86,5a6.21,6.21,0,0,1-3.2,1,18.28,18.28,0,0,1-1.95-.27,2.64,2.64,0,0,0-2.65.75C342.41,84.87,342.44,85.74,342.73,85.74Z" style="fill:#fff"></path><path d="M342.73,85.74l80.95.22h2.09c.2,0,.41,0,.51-.16s0-.27-.25-.36a10.43,10.43,0,0,0-1.94-.69c-2.71-.71-5.59-.6-8.17-1.83-1.72-.84-2.81-2.47-4.2-3.68a7.94,7.94,0,0,0-7.75-1.5c-.88.31-1.7.74-2.54,1.13A8.81,8.81,0,0,1,391.09,77c-3.56-4-8.88-8.16-14.45-5.88a17.8,17.8,0,0,0-4.55,3.17,13,13,0,0,1-4.72,2.93c-3.54,1.18-7.55.2-10.9,2a51.05,51.05,0,0,0-4.63,3.09c-1.53,1-3.24,2.12-5.14,1.85-1.32-.17-2.92-.73-4,.36a.74.74,0,0,0-.23.63c0,.21,0,.52.25.59Zm0,0c-.24-.07-.24-.38-.25-.59a.73.73,0,0,1,.22-.63c1.07-1.09,2.69-.54,4-.37,1.9.26,3.6-.87,5.12-1.86a51.26,51.26,0,0,1,4.63-3.11c3.34-1.84,7.37-.88,10.9-2.06A13,13,0,0,0,372,74.19a17.87,17.87,0,0,1,4.56-3.2c5.62-2.32,11,1.9,14.61,5.87a8.63,8.63,0,0,0,10.15,1.85,27.85,27.85,0,0,1,2.55-1.14,8.16,8.16,0,0,1,8,1.51c1.41,1.22,2.47,2.81,4.16,3.64,2.52,1.19,5.45,1.09,8.13,1.81a7,7,0,0,1,2.32.94.49.49,0,0,1-.32.72,2.4,2.4,0,0,1-.37,0h-.7l-82.35-.46Z" style="fill:#263238"></path><path d="M43.93,429.23c4.41,0,78.66.49,83.33.34a.36.36,0,0,0,.18-.67c-2.94-1.45-6.28-1.16-9.33-2.19a9.88,9.88,0,0,1-4.15-3.13,8.56,8.56,0,0,0-3.87-2.52,8.2,8.2,0,0,0-4.2-.14,36.77,36.77,0,0,0-4.26,1.77c-3.56,1.35-7,.07-9.58-2.57-2.1-2.18-4.16-4.23-7-5.4a9.35,9.35,0,0,0-7.44-.11c-2.72,1.24-4.59,3.72-7.15,5.21-3,1.78-6.66,1.36-10,1.89s-5.93,3.36-8.86,5a6.24,6.24,0,0,1-3.21,1,18.64,18.64,0,0,1-1.95-.27,2.66,2.66,0,0,0-2.65.74C43.61,428.36,43.64,429.23,43.93,429.23Z" style="fill:#fff"></path><path d="M43.93,429.23l80.95.22H127c.2,0,.41.05.51-.16s0-.27-.25-.36a10.27,10.27,0,0,0-2-.69c-2.7-.71-5.58-.6-8.17-1.83-1.71-.84-2.8-2.47-4.19-3.68a8,8,0,0,0-7.76-1.5c-.87.3-1.69.74-2.54,1.13a8.8,8.8,0,0,1-10.33-1.91c-3.56-3.95-8.88-8.16-14.46-5.89a18,18,0,0,0-4.54,3.18,13,13,0,0,1-4.72,2.93c-3.54,1.17-7.55.2-10.9,2A50.51,50.51,0,0,0,53,425.8c-1.52,1-3.23,2.12-5.14,1.85-1.31-.17-2.92-.73-4,.36a.73.73,0,0,0-.22.63c0,.21,0,.52.25.59Zm0,0c-.24-.07-.24-.38-.26-.59a.77.77,0,0,1,.23-.64c1.07-1.09,2.69-.53,4-.36,1.9.26,3.6-.87,5.12-1.86a53.55,53.55,0,0,1,4.63-3.12c3.34-1.83,7.37-.88,10.9-2.05a13.17,13.17,0,0,0,4.68-2.93,18.16,18.16,0,0,1,4.56-3.21c5.62-2.32,11,1.9,14.61,5.88a8.63,8.63,0,0,0,10.14,1.85c.84-.39,1.67-.83,2.56-1.14a8.14,8.14,0,0,1,8,1.51c1.4,1.21,2.47,2.81,4.16,3.64,2.52,1.19,5.45,1.08,8.12,1.8a7.55,7.55,0,0,1,2.33.94.5.5,0,0,1-.33.73c-.15,0-.24,0-.36,0h-.7c-22.17-.11-59.84-.33-82.35-.45Z" style="fill:#263238"></path><path d="M79.15,147.2c7.67,0,136.8.85,144.91.59.58,0,.9-.87.32-1.16-5.12-2.53-10.92-2-16.24-3.82-3.12-1.05-5-3.1-7.22-5.44A14.94,14.94,0,0,0,194.2,133a14.16,14.16,0,0,0-7.31-.23c-2.62.63-4.9,2.13-7.39,3.07-6.21,2.35-12.24.12-16.66-4.47-3.66-3.78-7.25-7.35-12.21-9.39a16.22,16.22,0,0,0-12.94-.18c-4.74,2.15-8,6.46-12.43,9.06-5.28,3.08-11.58,2.35-17.41,3.28s-10.3,5.84-15.4,8.66a10.92,10.92,0,0,1-5.57,1.73c-1.15,0-2.27-.34-3.4-.48-1.75-.22-3.42-.17-4.61,1.3C78.59,145.68,78.64,147.2,79.15,147.2Z" style="fill:#fff"></path><path d="M79.15,147.2c38.26.13,103.12.57,140.77.52l2.42,0,1.22,0a5.46,5.46,0,0,0,.58,0,.55.55,0,0,0,.36-.78c-5.51-3-12.36-1.91-18-4.66-3-1.46-4.87-4.28-7.29-6.39a13.81,13.81,0,0,0-8.83-3.35c-3.29-.16-6.27,1.3-9.15,2.72a14.86,14.86,0,0,1-9.49,1.36c-6.74-1.18-10.36-7.49-15.5-11.28a23,23,0,0,0-8.62-4.24c-12.55-3-15.82,8-25.59,11.26-4.67,1.46-9.64,1.07-14.41,1.89s-8.63,4.36-12.61,7c-2.65,1.72-5.62,3.68-8.93,3.22a17.38,17.38,0,0,0-4.81-.45c-1.12.19-2.58.87-2.53,2.17,0,.35,0,.92.45,1Zm0,0c-.43-.1-.42-.68-.45-1-.08-1.3,1.44-2,2.53-2.18a17.72,17.72,0,0,1,4.81.44c3.31.45,6.27-1.51,8.92-3.23,4-2.68,7.74-6.13,12.61-7s9.74-.45,14.4-1.92c9.77-3.34,13-14.24,25.64-11.3a23.08,23.08,0,0,1,8.68,4.25c5.14,3.76,8.74,10.06,15.44,11.22a14.66,14.66,0,0,0,9.38-1.37c2.88-1.42,5.92-2.91,9.24-2.75a14.06,14.06,0,0,1,9,3.39c2.44,2.12,4.3,4.9,7.25,6.35,5.66,2.74,12.69,1.54,18.14,4.74a.78.78,0,0,1-.51,1.13c-.41,0-1.42,0-1.84,0h-2.43c-37.4,0-102.77-.54-140.77-.74Z" style="fill:#263238"></path><path d="M254.48,257.61c.15.43,203.51,0,201,0-1.17,0,1.77-1.75.63-2.32-6.62-3.28-13.87-3.37-21.08-4-4.2-.38-8.52-1-12.31-3s-6.22-5.5-8.94-8.71A38.21,38.21,0,0,0,379,226.4c-14.46,2.26-25.86,13.28-40.34,15.3-8.7,1.22-16.93-2.14-25.44-3.33-7-1-12.83.39-19.09,3.49-4.59,2.28-8.83,4.19-14,4.55-4,.28-8-.18-12-.22-6.38-.06-12.69,2.71-17.61,7C249.88,253.8,247.84,257.61,254.48,257.61Z" style="fill:#fff"></path><path d="M254.48,257.61c62.2.44,133.85-.06,196.14-.1h4.75c0-.2.12.28.05.23-1.29-.16,1.15-1.59.74-2.19-3.66-2-7.93-2.81-12.05-3.33-6.66-.87-13.67-.52-20-3.13-5.45-2.11-8.4-7.42-12.27-11.43a38.91,38.91,0,0,0-14-9.15c-20.64-7.64-33.07,4.18-51,11.2a35,35,0,0,1-13.26,2.3,75.28,75.28,0,0,1-13.33-2.23c-4.39-1-8.85-1.93-13.37-1.59-9.24.28-16.53,7.21-25.61,8.16-4.5.5-9-.12-13.52-.11a25.27,25.27,0,0,0-12.8,3.81,29.13,29.13,0,0,0-4.11,3,2.68,2.68,0,0,0-.94,1.37c-.9,2.78,2.6,3.27,4.6,3.25Zm0,0c-2,.05-5.52-.52-4.61-3.25a2.7,2.7,0,0,1,.94-1.37,29.86,29.86,0,0,1,4.11-3,25.42,25.42,0,0,1,12.81-3.83c4.51,0,9,.6,13.51.1,9.08-1,16.36-7.9,25.62-8.19,4.52-.35,9,.61,13.39,1.58a75.48,75.48,0,0,0,13.31,2.21,34.75,34.75,0,0,0,13.22-2.31c18-7.06,30.38-18.89,51.12-11.25A38.86,38.86,0,0,1,414.25,240c2.82,3.45,5.67,7.18,9.95,8.84,6.31,2.59,13.27,2.23,19.94,3.09,4.18.56,8.54,1.33,12.21,3.44a.84.84,0,0,1-.17.91c-.16.36-.85.81-.9,1.17,0,0,.1,0,.14,0s0,.44-.05.23h-4.75c-62.31,0-133.92.39-196.14-.12Z" style="fill:#263238"></path></g><g id="freepik--Bird--inject-233"><path d="M282,274.34s-8.25-8-7.22-9.95,9.14.72,9.14.72-5.7-3.13-4.47-5.57,9.72-1.94,13.7-.42c0,0-4-2.63-1.63-5.05s10.5-1.61,14.11-.53,13.62,6.67,13.62,6.67-7.43-10.31-7.81-15.47.18-9.28,1.12-9.52,2.58,2.4,2.58,2.4-3.53-8.18-3.74-12.25,1.18-9.22,2.51-9.29,1.62,1.62,1.62,1.62-7.87-14.49-11-22.69-4-16.53-3.55-17.63c0,0-4.72-7.57-4.05-15.62,0,0-11.11-17.07-12.79-22.42a40.56,40.56,0,0,1-1.7-10.73s-4.06-5.44-2.55-10.25c0,0-21.9-29.48-17.5-32.41S336.49,164,367.62,211.05s34,69.74,34.57,79.62-5.76,18.63-5.76,18.63,3.13,7.83,1.7,12-20.94,1.76-20.94,1.76Z" style="fill:#FFC727"></path><g style="opacity:0.2"><path d="M361.73,206.36c-.89-.64-5.33-4.2-5.82-2.38a5.54,5.54,0,0,0,1.15,3.88l.41.62-.54-.51c-18.25-16.78-6.93,4.65-1.81,12.56a58.16,58.16,0,0,0,6.71,8.65l-.45.42c-2.64-2.76-5.24-5.82-8.51-7.81-.23-.11-.69-.34-.83-.1-.16,1.24.53,2.75.89,4,2,5.5,4.41,10.83,6.88,16.12,1.68,3.52,3.39,7,5.26,10.43l-.77.39c-3.64-7.05-7-14.66-12.21-20.66-.49-.43-1.3-1.24-1.58-.31-.73,2.79.18,5.83,1.09,8.55A62.17,62.17,0,0,0,356.81,251l-.73.5a24.53,24.53,0,0,0-2.51-3c-4.81-4.84-3.33,3.15-2.66,5.79a53.93,53.93,0,0,0,6.89,16.47c-2.95-2.5-6-5-9.07-7.33-2.07-1.54-19.63-15.38-17.6-6.44a17.09,17.09,0,0,0,2.09,4.16,21.45,21.45,0,0,0,6.49,7.3,87.85,87.85,0,0,0-15.17-6.24c-8.41-2.21-7.67,2.05-2.32,6.54-1.68-1.56-4-3.26-4.16-5.71.95-3.88,10.88.36,13.4,1.25q3.36,1.32,6.63,2.88l-.23.37c-2.43-1.43-11.85-13.93-5.1-14.08,3.24.26,5.95,2.36,8.65,4s5.21,3.58,7.72,5.48,5,3.86,7.42,5.87l-.53.47a56.46,56.46,0,0,1-5.89-14.76,20.6,20.6,0,0,1-.77-6c.39-3.59,3-2.49,4.82-.6A24.61,24.61,0,0,1,356.8,251l-.74.49a62.53,62.53,0,0,1-5.35-11c-1-2.92-2-6.08-1.13-9.22,2.24-4.85,8.84,8.36,10,10.14,1.95,3.56,3.78,7.17,5.53,10.83l-.76.39c-3.7-6.92-6.95-14-10-21.24-.42-1.47-5.71-12.38-1.18-10.23,3.4,2.07,6,5.15,8.67,8l-.45.42a58.83,58.83,0,0,1-6.74-8.78c-5.55-8.29-16.09-30.37,2.4-13l-.13.11a5.63,5.63,0,0,1-1.11-4c.59-2,5,1.76,5.92,2.4Z"></path><path d="M346.75,202.41c-2-1-6.43-3.55-8.44-1.94a4.57,4.57,0,0,0-.46,2.84,68.67,68.67,0,0,0,3,13.33c-2.37-2.67-8.2-8.3-6.38-.45a64.92,64.92,0,0,0,4,10.79l-.85.38c-1.24-2.41-2.36-5.52-4.35-7.33,0,0,0,0,.09,0a6.73,6.73,0,0,0-.3,1.88c.27,6.44,3.35,12.45,5.9,18.27l-.78.4c-1.62-2.68-3.15-5.73-5.51-7.82a1.39,1.39,0,0,0-.38-.18c-.07,0-.06,0-.14.11a2.92,2.92,0,0,0-.21,1,21.73,21.73,0,0,0,1.32,7.06A72.44,72.44,0,0,0,342,258.19,67.13,67.13,0,0,1,332.66,241a22.25,22.25,0,0,1-1.49-7.29c.35-4.65,4.18.8,5.14,2.29s1.77,2.76,2.59,4.19l-.78.41c-1.89-4.16-8.47-17.64-5.25-21.41,1.91-.85,4.76,6.37,5.55,7.85l-.85.38c-1.83-4.5-4.12-9-4.28-14,.69-4.67,5.56,0,7.06,1.76l-.58.32q-.82-3-1.47-6c-2-9.6-1.21-12.58,8.45-7.05Z"></path><path d="M281.9,109.2a138.54,138.54,0,0,1,10.24,11c9.76,11.43,19.08,23.23,28.34,35.07C332.63,171.21,345,187,355.89,203.86c-2.82-4.15-5.82-8.16-8.81-12.17q-22.56-30-45.9-59.47c-6.31-7.76-12.32-15.82-19.28-23Z"></path><path d="M347.77,201.51a87.69,87.69,0,0,1-14.62-12.15c-6.59-8.25-12-17.34-18.33-25.84-7.25-10.37-14.58-20.69-22.27-30.74-2.59-3.33-5.19-6.66-8.06-9.75,11.75,12.16,21.27,26.25,31.15,39.92,4.82,6.93,9.62,13.88,14.28,20.92a39.76,39.76,0,0,0,3.7,5.08,101.84,101.84,0,0,0,14.15,12.56Z"></path><path d="M338.75,210.18a164.62,164.62,0,0,1-41.85-48.42c1.54,2.2,2.9,4.51,4.5,6.66a243.8,243.8,0,0,0,37.35,41.76Z"></path><path d="M290.05,142.32c7.68,10.44,14.79,21.35,21.45,32.44a149.83,149.83,0,0,0,22.24,25.54,20.58,20.58,0,0,0,3.9,2.86,18.77,18.77,0,0,1-4.07-2.66,126.68,126.68,0,0,1-22.91-25.19c-5.73-9.77-14.41-23.35-20.61-33Z"></path><path d="M301,177.38c4.66,7.69,10.55,14.54,16.26,21.46s11.75,13.77,17.66,20.4a231,231,0,0,1-18.42-19.76c-5.64-7-11.52-14-15.5-22.1Z"></path><path d="M334.42,234.05c-8.21-10.21-28.92-37.73-29.81-49.94.72,4.83,3.39,9.09,5.7,13.32s5,8.35,7.69,12.41c4.58,7.14,11.56,17.11,16.42,24.21Z"></path><path d="M314.81,216.37c1.74,5.43,5.53,9.93,8.79,14.52,3.44,4.55,7.09,8.94,10.63,13.43-1-1-2-2-3-3A95.56,95.56,0,0,1,318,224.34c-1.36-2.51-2.86-5.1-3.2-8Z"></path><path d="M315.13,237.62c4.21,7.62,10.45,14.31,16.23,20.78-6.81-5.56-13.16-12.42-16.23-20.78Z"></path></g><path d="M289.06,269.52c2.44-6.25,14.56.5,19,1.41.11,0,.43,0,.29.06.05,0-.16,0-.22.15a.41.41,0,0,0,0,.51c-.89-.65-6.82-3.16-4.51-4.64a2.89,2.89,0,0,1,1.09-.09,50.91,50.91,0,0,1,7.09,1.48c3.95,1,8.13,2.33,12.05,3.48l.21.05.1,0s.09,0,0,0a.23.23,0,0,0-.18.25c-1.3-2.18-4-4.6-3.29-7.4-.42,2.86,2.3,4.93,3.74,7.09a1.13,1.13,0,0,1,.07.15.34.34,0,0,1-.22.44,1.75,1.75,0,0,1-.57-.08c-6.28-1.46-12.69-3.67-19.06-4.5a2.4,2.4,0,0,0-.69,0s0,0,.11-.13,0-.05,0-.05c.21.49.81.85,1.32,1.22,1.05.74,2.31,1.25,3.39,2.07a.47.47,0,0,1,0,.64.55.55,0,0,1-.27.18,11.3,11.3,0,0,1-3.31-.9c-3.89-1.26-13.8-6.7-16.22-1.45Z" style="fill:#fff;opacity:0.30000000000000004"></path><path d="M352.43,235.63c1.86,5.42,4.44,10.86,6.15,16.34a43.3,43.3,0,0,1-3.93-7.85c-1-2.74-2.14-5.53-2.22-8.49Z" style="fill:#fff;opacity:0.30000000000000004"></path><path d="M351.66,248.24c-.09,1.64.6,3.23,1,4.81a134.15,134.15,0,0,0,5,14,36.73,36.73,0,0,1-5.76-13.82c-.25-1.62-.74-3.4-.24-5Z" style="fill:#fff;opacity:0.30000000000000004"></path><path d="M336.05,214.29c.84,3.71,3,7.54,3.86,11.41a23.2,23.2,0,0,1-2.85-5.39c-.65-1.9-1.46-4-1-6Z" style="fill:#fff;opacity:0.30000000000000004"></path><path d="M394.19,322.73a73.77,73.77,0,0,1,28.64,2.89c19.59,6.42,17.86,23.7,25.77,30.3l-3.25,11.92s-2.7.52-8.12,6.1-12.61,12.44-17.77,14.11-24.36,5.43-29.14,7.08-18.56,9.33-37.54,6.38S287.85,371,270.69,355.72s-52.21-60.21-56.54-66.23-14.88-38.44-9.76-41.19,31.88,4.53,40.2,7.6,33,12.9,38.73,15.61,52.86,25.86,68,33.82S390.19,322.67,394.19,322.73Z" style="fill:#FFC727"></path><g style="opacity:0.30000000000000004"><path d="M434.74,376.45c-5,5-10.87,10.17-15.28,11.6-5.16,1.68-24.35,5.43-29.14,7.08s-18.56,9.33-37.54,6.38c-14.33-2.22-44-18.5-65.1-32.9,5.87,2.51,24.65,10.2,35.87,13s29-.35,28.34-.87-8.47-6.65-3.95-4.91A162.85,162.85,0,0,0,366,381.38c-2.12-2.07-7.84-7.44-3.23-5.07a94.65,94.65,0,0,0,11.17,4.51c-1.65-1.36-4.3-4.9-4.17-5.4s5.09,1.3,5.09,1.3-3.35-3-1-1.74,8.7,3.92,7.91,3.39-5.19-3.88-.89-2,13.79,3,13.08,2.73-3.42-3.22-.91-2,9.84,2.17,17.12,4.06C421.59,384.12,428.32,380.66,434.74,376.45Z" style="fill:#fff"></path><path d="M366.05,373.17c1.72,1.9,3.12,3.72,4.75,5.65a7.2,7.2,0,0,1-4.75-5.65Z" style="fill:#fff"></path><path d="M387.23,377.2c-4.62-.35-9.35-1.74-12.82-4.95,4.16,2,8.54,3.24,12.82,4.95Z" style="fill:#fff"></path><path d="M348.63,380a6.94,6.94,0,0,1-4.91-4.32,23,23,0,0,1,4.91,4.32Z" style="fill:#fff"></path></g><path d="M436.68,369.43c2.68.7,4.32-.82,9.3-1.71a64.76,64.76,0,0,1,7.92-1.37s-5.65-4.57-8.54-3.8S436.68,369.43,436.68,369.43Z" style="fill:#a6a6a6"></path><path d="M448.6,355.92a14.41,14.41,0,0,0-6.63,3.31c-1.93,1.77-2.5,4.37-3.89,8.1a3.92,3.92,0,0,1-2.13,1.94c3.59,1.13,6-2.79,11.12-3.36s8.61,1.28,9.18.6S454.16,360.09,448.6,355.92Z" style="fill:#c7c7c7"></path><path d="M442.8,361.44c-.32.24-.88,1.82-.07,1a5.16,5.16,0,0,0,.39-.6,1.4,1.4,0,0,1-.52,1,.34.34,0,0,1-.48-.09,1.21,1.21,0,0,1,.68-1.32Z" style="fill:#263238"></path><path d="M248.84,257.51c-10.54-4.8-22.07-19.37-27-27.41S186.29,167,183.26,160.5s-14.94-28.5-17.92-26.45,8.28,24.17,8.28,24.17-4.66,1.09,5.2,21c0,0-5.06,2,5.1,21.81,0,0-8.43-4.23,3.68,21.08,0,0-5.35-1.06-6.58-.48s-.42,2.42-.42,2.42-2.44-.93-3.34,2a10.5,10.5,0,0,0-.13,5.5s-12.53-4.75-11.26.36c0,0-16.9-7.24-23.17-8.45s-8.54.91-8.54.91a17.14,17.14,0,0,0-8.28-.83c-4.84.64-18.87-4.51-18.67.14,0,0-21.17-9.44-27.07-10.36s-6.75.19-10.56-.7S53,205.63,51.12,209s4.49,6.8,44.81,27.22,101.67,40.86,108.94,45.21,13.82,14,13.82,14Z" style="fill:#FFC727"></path><g style="opacity:0.2"><path d="M69.58,212.63C111,230.49,154.7,250,195.51,269.31c-40.71-17.77-85.7-37.92-125.93-56.68Z"></path><path d="M104.77,231.91c13.47,6.5,31.84,16.54,45.58,21.86,15.62,6.34,31.51,12.07,47,18.79-3.92-1.54-7.89-3-11.85-4.42-11.54-4.25-24.15-8.94-35.51-13.44-15.67-6.34-30.37-14.76-45.2-22.79Z"></path><path d="M107.21,223.69c15.14,6.25,31.11,12.47,46.08,19.11,15,7.15,29.49,15.4,44,23.56l-11.09-5.7c-10.33-5.26-22.83-12.15-33.3-17-15.15-6.83-30.63-13-45.67-20Z"></path><path d="M134.16,224.38c12.29,4.1,23.72,10.46,35.14,16.52,10.9,6.61,21.93,14.17,32.41,21.44l-8.25-5.12c-8-5-16.63-10.71-24.66-15.45-5.61-3.19-11.36-6.16-17.1-9.13s-11.47-6-17.54-8.26Z"></path><path d="M165.87,231.92c15.45,7.25,29.69,17.05,42.86,27.87-14-9.74-28-19.44-42.86-27.87Z"></path><path d="M177.13,231.56c12.92,5.48,24.2,14.31,34.29,23.95l-4.15-3.2c-9.54-7.58-19.46-14.88-30.14-20.75Z"></path><path d="M173.62,158.22c9,15.72,19.47,31.54,28.55,47.2,6.88,11.92,15.82,22.53,24.19,33.43l8.56,10.81c-9-10.43-17.84-21.07-26-32.19a113.28,113.28,0,0,1-7.6-11.55c-9.14-15.94-19.26-31.36-27.69-47.7Z"></path><path d="M178.82,179.21c6.9,12.72,15.17,24.71,23.69,36.38,6.5,8.67,13.81,16.76,21,24.94l7.18,8.16c-10.11-10.39-20.09-21-28.93-32.51-8.47-11.76-16.68-23.85-22.89-37Z"></path><path d="M183.92,201c5.94,8.55,11.87,17.2,18.72,25,5,5.59,11.48,11,16.83,16.34,1.86,1.84,3.74,3.65,5.58,5.5-2-1.69-3.94-3.43-5.92-5.14-5.62-5.14-12.1-10.43-17.23-16a176,176,0,0,1-18-25.7Z"></path><path d="M187.6,222.1c8.35,9.34,22.87,20.32,32.39,28.69a207.28,207.28,0,0,1-17.21-13.22c-5.41-4.76-11.05-9.5-15.18-15.47Z"></path><path d="M180.6,224a290.45,290.45,0,0,1,34.9,28.59c-5.9-4.48-11.79-9.55-17.51-14.22S186.17,228.77,180.6,224Z"></path></g><g style="opacity:0.30000000000000004"><path d="M54.22,209.91c-1.47,1.66,8.21,6.28,9.6,7.23,8.53,4.71,19.23,10.33,27.79,15.07,1.83,1,3.68,2,5.51,3.11-1.93-.86-3.83-1.78-5.74-2.68-3.77-1.87-40.14-19.58-37.16-22.73Z" style="fill:#fff"></path><path d="M112.72,223.19a2.26,2.26,0,0,1,1.09-.12c3.61.22,7.08,1.42,10.61,2a30,30,0,0,1,5.35-.29c-.65.14-4.51,1-5.07,1.16-2.68-.07-5.25-1-7.81-1.66-1.19-.28-3-1.07-4.17-1.07Z" style="fill:#fff"></path><path d="M166.62,138c1.45,4.22,4.6,9.92,6.5,14l6.8,13.9a103.54,103.54,0,0,1-7.7-13.46c-2.15-4.68-4.58-9.37-5.6-14.46Z" style="fill:#fff"></path><path d="M174.62,164.1c3.31,9.34,7.92,18.11,12.64,26.81-5.89-8-10.64-17-12.64-26.81Z" style="fill:#fff"></path></g><path d="M297.62,278.48c12.29,5.11,24.19,11.08,36.09,17,7.92,4,15.47,8.56,23.64,12.13,11.77,5.12,24.39,11.94,36.84,15.08-2.17-.43-4.32-1-6.45-1.62-6.4-1.85-12.46-4.71-18.61-7.24-8.16-3.56-16.27-7.05-24.18-11.2-6.6-4-16.57-8.79-23.5-12.4-6.94-3.46-16.84-8.62-23.83-11.79Z" style="opacity:0.2"></path><path d="M413.56,362c0-.83,2.87-4.42,6.42-3.86,2.91.46,5.58,3.27,6.23,3.52s1.39.43,1.32.66-1,.45-1.16.62c-1.14,1.12-3.34,3.88-7.61,3.31A6,6,0,0,1,413.56,362Z" style="fill:#263238"></path><g style="opacity:0.2"><path d="M411.69,360.48c4.34-4.6,9.11-6.54,14.1-1.54a11.15,11.15,0,0,0,1.72,1.5,9.45,9.45,0,0,1-1.88-1.31c-5.22-4.59-9.18-2.6-13.94,1.35Z"></path><path d="M412.89,364.5c2.61,2.7,6.54,4.18,10.08,2.38a23.51,23.51,0,0,0,3.34-1.73,15.33,15.33,0,0,1-3.18,2.09c-3.52,2-8,.47-10.24-2.74Z"></path></g><path d="M421.59,360.18a1.82,1.82,0,0,1,2.14,1.36,3.28,3.28,0,0,1-2.14-1.36Z" style="fill:#fff"></path><path d="M415.38,361.17a4,4,0,0,1,5.2-1.35,12.94,12.94,0,0,0-5.2,1.35Z" style="fill:#fff"></path><g style="opacity:0.2"><path d="M392.66,323.94c-2.15.66-4.28,1.37-6.4,2.07a19.11,19.11,0,0,0-4.44,1.87c-.55.5.22.9.55,1.2-1.67,1.13-3.92,2.35-4.58,4.33s-.94,3.94-1.38,5.93c-.73,3.64-2.19,7.52-1.29,11.24.06.24.19.64.4.49-.1.14-.25,0-.31-.12a11.63,11.63,0,0,1-.64-5.71c.63-3.62,1.32-8.6,2.28-12.11.63-2.12,2.74-3.36,4.48-4.5l-.05.77c-1.49-1.42.24-2.65,1.54-3a68.36,68.36,0,0,1,9.84-2.45Z"></path><path d="M379.15,327.81c-1.4,1-3.42,1.77-4.22,3.27a26.26,26.26,0,0,0-.69,5.48,32,32,0,0,0,0,3.79,12.85,12.85,0,0,1-.77-3.78,15.35,15.35,0,0,1,.57-5.83c.95-1.84,3.3-2.39,5.11-2.93Z"></path><path d="M373.06,346.32a18.64,18.64,0,0,0,1.54,9.23l1.33,2.93c-2.85-3.23-4.41-8-2.87-12.16Z"></path><path d="M376,355.42a15.32,15.32,0,0,0,3.26,6.12,7.09,7.09,0,0,1-3.26-6.12Z"></path></g><g style="opacity:0.2"><path d="M279.6,291.87c-.09.2-.19,1.2-.59,1.54a9.92,9.92,0,0,1-2.45.74,3.29,3.29,0,0,1-.07,1.53,10.17,10.17,0,0,1-3,1.72,21.9,21.9,0,0,1-3.64.17s.88,1.27.57,1.74-3.34-.63-5-.85-6.37-.67-6.37-.67,2.45,1.54,2.1,1.72-4.37.18-6-.78-5.15-2.51-5.15-2.51,2.74,1.88,2,1.77-10.93-2.66-15.56-6a63,63,0,0,1-8.52-8.06c-1.25-1.36-2.26-2.46-2.87-3-1.78-1.58-4.88-5.15-5.08-6-.18-.7,1.06.49,1.5.93-1.63-1.77-5.16-6.41-5.35-7.13s1.37.77,1.76,1.13a23.05,23.05,0,0,1-3-3.67c-1.15-1.88.78-1.31.17-2.6s-.84-1.3-.58-1.83,1.47,0,1.47,0-1.48-3.12-1.32-3.63,3.07-1.54,3.07-1.54L218,256c.35-.68,3.05-.74,3.28-.69s-1.12-2.06-.89-2.91,7.91.41,7.91.41-3.61-2.28-1.15-1.62l9.47,2.56s-.59-.32-1.28-.73c-1.14-.65-2.53-1.5-1.8-1.3a39.16,39.16,0,0,1,8.74,1.78,35.34,35.34,0,0,0,6.54,4.05h0c4.22,1.63,9.87,3.83,15.4,6.06h0c.71.51,1.26,1,1.21,1.08-.14.31-2.31-.91-2.31-.91l2.27,1.5a34.08,34.08,0,0,1,4.35,4.08c-.09.15-2.39-1.37-1.75-.89s3.5,3.94,4.33,4.6,4.31,3.59,4.17,3.8-2.06-1-2.06-1a23.58,23.58,0,0,1,3.09,2.44c.6.76,2.26,2.57,2,2.78s-1.06-.64-1.2-.78c.24.33,2.81,3.82,2.9,4.8s-1,1.31-1.16,1.94,1.46,3.27,3.34,5C284,292.64,279.69,291.67,279.6,291.87Z" style="fill:#fff"></path><path d="M212.82,263a20.5,20.5,0,0,0,3,5.44,5.37,5.37,0,0,1-3-5.44Z" style="fill:#fff"></path><path d="M230.59,286.85a23.63,23.63,0,0,0,9.52,8.09,32.14,32.14,0,0,0,8.7,3.72c1,.36,2,.7,3,1.1-2.09-.49-4.1-1-6.23-1.43a45,45,0,0,1-5.83-2.73,19.67,19.67,0,0,1-9.16-8.75Z" style="fill:#fff"></path><path d="M269.78,270.3c.92.81,2.46,1.72,3.46,2.46a12.7,12.7,0,0,1,3.11,3,20.68,20.68,0,0,1-1.8-1.18c-1.7-1.29-3.76-2.33-4.77-4.29Z" style="fill:#fff"></path><path d="M277.93,284.1c.73,1,2.06,2.18,2.9,3.1a12.89,12.89,0,0,1,2.45,3.57,18.3,18.3,0,0,1-1.53-1.52c-1.41-1.6-3.23-3-3.82-5.15Z" style="fill:#fff"></path><path d="M225.64,250a21,21,0,0,1,11,3.66c-3.67-1.32-7.26-2.44-11-3.66Z" style="fill:#fff"></path><path d="M219.18,275.62a41.7,41.7,0,0,0,7,7.31l4,3.12c1.34,1.05,2.69,2.1,4,3.23-5.74-3.54-11.94-7.44-15-13.66Z" style="fill:#fff"></path><path d="M275.58,276.64a18,18,0,0,1,3.2,2.37,11,11,0,0,0,1.63,1.64,50.42,50.42,0,0,0,5,3.74,16.1,16.1,0,0,1-6.65-4.31,39.62,39.62,0,0,0-3.18-3.44Z" style="fill:#fff"></path><path d="M211.79,254.21a45.94,45.94,0,0,1,3.73,6c.46,1.35,1.12,2.52,1.67,3.84a20.55,20.55,0,0,1-3-4.76,24.55,24.55,0,0,1-2.43-5.09Z" style="fill:#fff"></path><path d="M279.14,282.18a47.1,47.1,0,0,1,4.61,4.87c1,2,2.93,3.16,4.74,4.4-2.05-.84-4.24-1.95-5.33-4a34.25,34.25,0,0,1-4-5.29Z" style="fill:#fff"></path><path d="M218.2,250.18a45.26,45.26,0,0,1,6.91,1.5c1.28.61,2.59.95,3.92,1.47a20.7,20.7,0,0,1-5.49-1.17,25.25,25.25,0,0,1-5.34-1.8Z" style="fill:#fff"></path><path d="M269.86,297.57a27.85,27.85,0,0,1,12.37.93c-4.08-.24-8.3-.5-12.37-.93Z" style="fill:#fff"></path><path d="M276.56,294.15a6.38,6.38,0,0,1,3.84-.6,47.74,47.74,0,0,1,5.7,2.68c-2-.57-4-1.31-5.91-2-1.15-.16-2.41.11-3.63-.09Z" style="fill:#fff"></path><path d="M285.09,293.12c2.94.63,5.46,2.47,7.85,4.23-2.91-.87-5.32-2.65-7.85-4.23Z" style="fill:#fff"></path><path d="M263.07,298.19a61.79,61.79,0,0,1,6.51,1.08c2.13.22,4.45-.26,6.59.15s4.38.64,6.54,1.16,4.14,1.52,6.31,2a21.71,21.71,0,0,1-4.84-1.07,69.41,69.41,0,0,0-8.1-1.33c-2.23-.49-4.35,0-6.59-.33s-4.24-1.26-6.42-1.65Z" style="fill:#fff"></path><path d="M259,297.79a56.35,56.35,0,0,1,7.24,1.7,8.47,8.47,0,0,0,2.26.71c3.25.29,6.5-.48,9.78.52a38,38,0,0,0-4.89,0,17.34,17.34,0,0,1-5,.24,8.42,8.42,0,0,1-2.41-.79c-2.27-.92-4.71-1.41-7-2.36Z" style="fill:#fff"></path><path d="M268.37,297c1.94.21,3.88.9,5.75,1.1a22.8,22.8,0,0,1,4.91.82,44.48,44.48,0,0,1-4.9-.07,19.6,19.6,0,0,1-5.76-1.85Z" style="fill:#fff"></path><path d="M274.61,296.27a12.29,12.29,0,0,1,4.72-.85,37.36,37.36,0,0,1,7.48,2.5,54.35,54.35,0,0,1-6.12-1.41,7.23,7.23,0,0,0-2.95-.44l-3.13.2Z" style="fill:#fff"></path><path d="M277.9,279.92a34.81,34.81,0,0,0,5.18,4,21.79,21.79,0,0,0,5,4.18,11.86,11.86,0,0,1-5.47-3.6,15,15,0,0,1-4.7-4.57Z" style="fill:#fff"></path><path d="M268,268.44c2.57,2.22,5.85,3.29,8.61,5.24a74.33,74.33,0,0,0,8.34,5.64,33.3,33.3,0,0,1-8.75-5c-2.72-1.95-6.05-3.22-8.2-5.86Z" style="fill:#fff"></path><path d="M264.8,264.84c4.49,1.72,8.07,5.06,11.92,7.85-4.42-1.93-7.92-5.22-11.92-7.85Z" style="fill:#fff"></path><path d="M246.12,296.38c3.23,1.05,6.35,2.38,9.62,3.26,4.36,1.11,9.07.95,13.31,2.58a15.39,15.39,0,0,0,3.22,1c-2.29-.09-4.4-1.18-6.6-1.39s-4.5-.52-6.75-.84c-4.53-.61-8.71-2.65-12.8-4.61Z" style="fill:#fff"></path><path d="M265.51,269.82C268,272,271.18,273,273.77,275a72.85,72.85,0,0,1,8,5.66c-3.35-2.3-6.92-4.29-10.24-6.61-2.06-1.28-4.35-2.37-6-4.22Z" style="fill:#FFC727"></path><path d="M260.74,286.08c3.63,2.43,8.1,2.38,12.16,3.64a53,53,0,0,1,11.69,5.21,78.67,78.67,0,0,0-11.83-4.73c-4-1.28-8.62-1.36-12-4.12Z" style="fill:#FFC727"></path><path d="M270.6,282.84c2.08.79,4.29,1,6.32,2s3.41,2.87,4.89,4.49c-1.22-1-2.54-2.17-3.78-3.18-2.12-1.75-5.11-1.82-7.43-3.26Z" style="fill:#FFC727"></path><path d="M265.61,295.53c1.52.42,3.16.8,4.25,2-.39-.14-.74-.31-1.1-.45a10.27,10.27,0,0,1-3.15-1.59Z" style="fill:#FFC727"></path><path d="M221.26,255.26c2.66.77,5.44,1.24,7.69,3-1.32-.38-2.54-1.07-3.85-1.45a12.65,12.65,0,0,1-3.84-1.55Z" style="fill:#FFC727"></path><path d="M227.59,252.5a24.92,24.92,0,0,1,2.72,1.22,4.8,4.8,0,0,1,2.34,1.93c-.43-.28-1.43-1-1.87-1.21a10.42,10.42,0,0,1-3.19-1.94Z" style="fill:#FFC727"></path><path d="M279,280.9c-2.12-1.69-4.41-2.88-6.59-4.47A14.47,14.47,0,0,1,279,280.9Z" style="fill:#FFC727"></path><path d="M276.56,294.15a35.38,35.38,0,0,1-4.08-2.39,25.2,25.2,0,0,1-2.59-1.19,22.9,22.9,0,0,1,2.78.76,22.28,22.28,0,0,1,3.89,2.82Z" style="fill:#FFC727"></path></g><g style="opacity:0.2"><path d="M268.91,283.76c-.06.14-.14.88-.44,1.13a7,7,0,0,1-1.8.54,2.53,2.53,0,0,1-.05,1.14,7.86,7.86,0,0,1-2.21,1.26,16.14,16.14,0,0,1-2.68.13s.65.93.42,1.28-2.46-.46-3.7-.63-4.69-.49-4.69-.49,1.8,1.13,1.54,1.27a9.29,9.29,0,0,1-4.44-.58c-1.22-.7-3.8-1.85-3.8-1.85s2,1.39,1.45,1.3-8.06-1.95-11.47-4.4a46.86,46.86,0,0,1-6.28-5.94c-.92-1-1.67-1.82-2.12-2.22-1.31-1.16-3.59-3.8-3.74-4.42s.78.36,1.11.69a36.55,36.55,0,0,1-3.95-5.26c-.12-.48,1,.57,1.3.83a17.14,17.14,0,0,1-2.19-2.7c-.85-1.39.57-1,.12-1.92s-.62-1-.43-1.35,1.08,0,1.08,0a11.24,11.24,0,0,1-1-2.67c.11-.38,2.26-1.14,2.26-1.14l.26-.51c.25-.5,2.24-.54,2.41-.51s-.83-1.51-.66-2.14,5.83.3,5.83.3-2.66-1.68-.85-1.2l7,1.9-.95-.54c-.84-.49-1.86-1.11-1.33-1a28.61,28.61,0,0,1,6.45,1.31,26.39,26.39,0,0,0,4.82,3h0c3.11,1.2,7.27,2.83,11.35,4.47h0c.53.37.94.7.9.79s-1.71-.67-1.71-.67l1.67,1.1a26.19,26.19,0,0,1,3.22,3c-.08.11-1.77-1-1.3-.65s2.58,2.9,3.2,3.39a22.76,22.76,0,0,1,3.07,2.8c-.11.16-1.52-.73-1.52-.73a17.63,17.63,0,0,1,2.28,1.8c.44.56,1.67,1.89,1.44,2s-.78-.47-.88-.57c.18.24,2.07,2.82,2.13,3.54s-.76,1-.85,1.43,1.08,2.41,2.46,3.7C272.17,284.32,269,283.61,268.91,283.76Z" style="fill:#fff"></path><path d="M219.69,262.5a36,36,0,0,0,2.23,4,3.57,3.57,0,0,1-2.23-4Z" style="fill:#fff"></path><path d="M232.79,280.06a18.12,18.12,0,0,0,7.06,5.87,23.75,23.75,0,0,0,5.25,2.43l1.13.36c.74.27,1.48.53,2.2.85a25.18,25.18,0,0,1-8.94-3,14.06,14.06,0,0,1-6.7-6.53Z" style="fill:#fff"></path><path d="M261.67,267.86a26.39,26.39,0,0,1,3.84,2.77,7.2,7.2,0,0,1,1,1.26,11,11,0,0,1-1.37-.81c-1.28-.92-2.81-1.71-3.47-3.22Z" style="fill:#fff"></path><path d="M267.68,278a27.08,27.08,0,0,1,3.21,3.48,8.11,8.11,0,0,1,.73,1.44,12.32,12.32,0,0,1-1.19-1.08c-1.07-1.15-2.41-2.23-2.75-3.84Z" style="fill:#fff"></path><path d="M229.14,252.93a13.29,13.29,0,0,1,8.08,2.7c-2.77-.86-5.38-1.67-8.08-2.7Z" style="fill:#fff"></path><path d="M224.38,271.78c3,4.06,7.35,6.72,11.05,10.06-4.31-2.49-8.89-5.39-11.05-10.06Z" style="fill:#fff"></path><path d="M266,272.53a14.15,14.15,0,0,1,3.62,2.88c1.13,1,2.42,1.89,3.62,2.84a10.21,10.21,0,0,1-5.31-3.59c-.61-.73-1.32-1.37-1.93-2.13Z" style="fill:#fff"></path><path d="M218.93,256a23.39,23.39,0,0,1,4,7.26,13.14,13.14,0,0,1-2.28-3.46,14.81,14.81,0,0,1-1.7-3.8Z" style="fill:#fff"></path><path d="M268.57,276.61c1.35,1.28,2.9,2.43,3.79,4.1a12.17,12.17,0,0,0,3.1,2.74,7.08,7.08,0,0,1-4-2.88,19.77,19.77,0,0,1-2.89-4Z" style="fill:#fff"></path><path d="M223.65,253a23.41,23.41,0,0,1,8,2.19,12.6,12.6,0,0,1-4.07-.77,15,15,0,0,1-3.92-1.42Z" style="fill:#fff"></path><path d="M261.73,288a17.25,17.25,0,0,1,9.12.68,68,68,0,0,1-9.12-.68Z" style="fill:#fff"></path><path d="M266.67,285.43a4.15,4.15,0,0,1,2.86-.53A28.39,28.39,0,0,1,273.7,287c-1.49-.36-2.94-.88-4.38-1.38a16.1,16.1,0,0,1-2.65-.16Z" style="fill:#fff"></path><path d="M273,284.68a12.33,12.33,0,0,1,5.79,3.11,16.76,16.76,0,0,1-5.79-3.11Z" style="fill:#fff"></path><path d="M256.73,288.42a39.8,39.8,0,0,1,4.81.72c1.55.13,3.29-.23,4.86.09a40.83,40.83,0,0,1,9.46,2.41,15.24,15.24,0,0,1-3.6-.73c-1.95-.45-4-.67-6-.94-1.65-.35-3.19,0-4.85-.27s-3.12-1-4.72-1.28Z" style="fill:#fff"></path><path d="M253.76,288.12a34.3,34.3,0,0,1,5.37,1.17,5.84,5.84,0,0,0,1.65.51c2.32.2,4.9-.32,7.19.48-2.54-.23-4.77.48-7.3.26a6.45,6.45,0,0,1-1.8-.59c-1.67-.69-3.46-1.07-5.11-1.83Z" style="fill:#fff"></path><path d="M260.64,287.5c1.46.09,2.88.57,4.23.71a13.21,13.21,0,0,1,3.62.71,20.73,20.73,0,0,1-3.61,0,12.08,12.08,0,0,1-4.24-1.46Z" style="fill:#fff"></path><path d="M265.24,287a8.36,8.36,0,0,1,3.49-.72,22.41,22.41,0,0,1,5.49,1.93,35.26,35.26,0,0,1-5.61-1.23,31.63,31.63,0,0,0-3.37,0Z" style="fill:#fff"></path><path d="M267.66,275a33.53,33.53,0,0,0,3.88,2.87,18.84,18.84,0,0,0,3.62,3.15,8.22,8.22,0,0,1-4.1-2.57,10.29,10.29,0,0,1-3.4-3.45Z" style="fill:#fff"></path><path d="M260.38,266.49c2.48,1.93,5.57,2.8,7.93,4.92a53.78,53.78,0,0,0,4.57,3.1,22.5,22.5,0,0,1-6.51-3.62c-2-1.44-4.46-2.4-6-4.4Z" style="fill:#fff"></path><path d="M258,263.83c2.57.79,4.6,2.59,6.75,4.1a24.56,24.56,0,0,1,2,1.69,26.41,26.41,0,0,1-2.37-1.21,69.85,69.85,0,0,1-6.41-4.58Z" style="fill:#fff"></path><path d="M244.24,287.08c3.18.95,6.22,2.35,9.53,2.76,1.64.26,3.29.45,5,.76s3.14,1.21,4.79,1.52c-1.7,0-3.27-.82-4.88-.95s-3.31-.34-5-.59c-3.36-.44-6.44-2-9.42-3.5Z" style="fill:#fff"></path><path d="M258.53,267.5a29.81,29.81,0,0,0,4.61,2.77,60.12,60.12,0,0,1,7.34,5.21c-3.05-1.9-6.08-3.81-9.12-5.74a11,11,0,0,1-2.83-2.24Z" style="fill:#FFC727"></path><path d="M255,279.49c2.72,1.74,6,1.7,9,2.62a36.84,36.84,0,0,1,8.6,3.9,64.6,64.6,0,0,0-8.74-3.42c-2.93-.95-6.37-1-8.84-3.1Z" style="fill:#FFC727"></path><path d="M262.28,277.1c1.55.54,3.17.68,4.69,1.38a15.87,15.87,0,0,1,3.57,3.37c-1.34-.86-2.44-2.19-3.79-2.92s-3.11-.95-4.47-1.83Z" style="fill:#FFC727"></path><path d="M258.6,286.45a4.83,4.83,0,0,1,3.13,1.51c-.3-.08-.56-.19-.83-.29a5.82,5.82,0,0,1-2.3-1.22Z" style="fill:#FFC727"></path><path d="M225.91,256.77c2,.49,4.05.84,5.67,2.22-1-.24-1.89-.74-2.85-1a8.09,8.09,0,0,1-2.82-1.21Z" style="fill:#FFC727"></path><path d="M230.57,254.74c1.42.51,3,1,3.73,2.32-1.23-.84-2.69-1.24-3.73-2.32Z" style="fill:#FFC727"></path><path d="M268.46,275.67c-1.62-1.18-3.29-2-4.85-3.3a9.29,9.29,0,0,1,4.85,3.3Z" style="fill:#FFC727"></path><path d="M266.67,285.43a16.68,16.68,0,0,1-3-1.7,12.79,12.79,0,0,1-1.89-.94,8.12,8.12,0,0,1,4.92,2.64Z" style="fill:#FFC727"></path></g><path d="M434.74,376.45c-5,5-10.87,10.17-15.28,11.6-5.16,1.68-24.35,5.43-29.14,7.08s-18.56,9.33-37.54,6.38c-11.54-1.79-33-12.69-52-24.38,8.13,3.28,21,8.2,29.56,10.2,11.09,2.61,28.9-1.1,28.22-1.63s-8.26-6.72-3.8-5a150.52,150.52,0,0,0,17.82,5.37c-2.06-2.1-7.62-7.56-3.1-5.21a84.61,84.61,0,0,0,11,4.41c-1.61-1.39-4.13-5-4-5.51s5,1.22,5,1.22-3.26-3-1-1.78,8.55,3.86,7.78,3.33-5.06-3.92-.83-2.11,13.64,2.82,12.94,2.52-3.32-3.28-.86-2,7.57,1.33,13.28,2.52C423.73,385.66,428.24,381,434.74,376.45Z" style="fill:#fff;opacity:0.2"></path><path d="M358.32,357.47c2.2,2.92.36,7.81.36,7.81A51.55,51.55,0,0,1,359.3,388c-2.56,11.74-35.45,24.55-44.21,26s-77.71-9.35-88.35-12.18-30.57-4.71-35.22-11.14c0,0-72.49-14-93.05-16.18s-53.66,1.94-54.64-.95,2.89-6.17,7.68-7.57,32.33-1.7,32.33-1.7.12-4.88,19.76-4.62c0,0,2-4.08,14.18-6s37.54.82,37.54.82c1.88-.93,7.93-3.81,9.27-3.48,0,0,1.79-5.9,28-3.07,0,0-6.8-3.16-3.7-7.51s17.31-2.95,17.31-2.95-8.12-2.71-7-6.47,21.81-1.21,23.15-1.1-8.93-4-6.7-8.79,14.64-1.32,14.64-1.32l-5.25.15s.33-3.37,6.32-3.95,26.53,3.77,26.53,3.77" style="fill:#FFC727"></path><g style="opacity:0.2"><path d="M191.52,390.67c12.61,1.87,30.86,4.3,43.66,6.1l-.26.92a103.17,103.17,0,0,1-12.51-6.42c-.87-.65-1.69-1-2.24-2.1-.5-2.63,4.08-1.24,5.41-.92l-.39.76a63.69,63.69,0,0,1-8.49-8,4,4,0,0,1-1-1.87c0-1.95,8-1.45,9.6-1.55q3.87,0,7.74.27c-2.58,0-5.16,0-7.74,0a55.47,55.47,0,0,0-7.66.62,3.6,3.6,0,0,0-1.23.43c-.11.08-.07.07-.09.16a3.76,3.76,0,0,0,.87,1.48,71.1,71.1,0,0,0,8.52,7.74l1.62,1.31-2-.55c-13.06-3,7.68,6.75,10,7.72l3,1.4c-15.63-2.29-31.31-4.48-46.82-7.54Z"></path><path d="M238.38,374.09c-6.58-.54-13.15-1.17-19.69-2.06-3.28-.54-6.64-.83-9.74-2.13a1.46,1.46,0,0,1-.77-.86c-.1-3.23,14.63-6.2,17.59-6.58,3.34-.46,6.67.34,9.95.84,6.51,1.17,12.95,2.6,19.38,4.1l-.35.9c-8.55-5.11-23.68-14.79-2.79-13.79,3.16.11,6.29.36,9.43.72l-.32.77c-3.33-2.87-7-5.56-9.2-9.46-.75-1.51.57-2.39,1.84-2.71a35.16,35.16,0,0,1,9.87-.58l-.19.5c-1-.79-7.27-6.16-3.38-6.27,6.21.33,12.25,2,18.29,3.35-4.4-.94-8.82-1.82-13.27-2.49-1.87-.19-3.89-.7-5.73-.3-.09,0-.05.06-.07.16.14,1.13,1.21,2,2,2.89a36.24,36.24,0,0,0,3.18,2.75l-.87,0c-1.59,0-12.41-.46-11,2.44,2.38,4,6.68,7,10.22,10-3.59-.41-7.23-.73-10.84-.84-1.45,0-11-.48-9.41,2.23,1.1,1.94,3.1,3.34,4.87,4.71a117.57,117.57,0,0,0,10.66,6.75c-7.45-1.78-15-3.54-22.49-4.92-3.2-.5-6.46-1.3-9.69-.88-5.54.89-11.42,2-16.37,4.72-.56.41-1.13.91-.26,1.35,2.93,1.27,6.36,1.62,9.52,2.21,6.5,1,13.06,1.82,19.62,2.51Z"></path><path d="M236.11,312.26c2.78,2.1,5.78,4.53,9.35,4.92,4.13.42,8.33.56,12.49.68-2.22.87-4.77,1.51-6.65,3-.14.16,0,.08-.12-.06s0,0,0,0c7,.75,14.37.06,21.41-.07-3.35,1.13-7.26,2.05-10.34,3.75-.05,0-.1.13,0,0a.67.67,0,0,0,0-.2.3.3,0,0,0-.11-.17,5.85,5.85,0,0,0,1.37.35c3.7.61,7.53.86,11.28,1.13a49.49,49.49,0,0,0-5.55,3.26c-.49.38-1.33,1-1.51,1.48,6.52,2,14.34,1.66,21.16,3.68a32.55,32.55,0,0,1,8.95,4.09,33.9,33.9,0,0,0-9.05-3.73c-6.41-1.51-13-1.55-19.52-2.68-1.87-.33-3.45-1-1.54-2.74a28.86,28.86,0,0,1,5.25-3.42l.18.86c-3.3-.23-6.55-.44-9.83-1-.63-.17-2.25-.23-2-1.23a1,1,0,0,1,.36-.48,11.84,11.84,0,0,1,2.62-1.25c1.55-.59,3.11-1.1,4.69-1.58l.15.93c-6,0-12.19.64-18.19-.26-2.39-1.33,4.2-3.39,5.12-3.73l.1.65c-3.6-.21-7.19-.39-10.77-.9s-6.57-3-9.29-5.32Z"></path><path d="M237.5,364.08c-6-3.74-12.12-7.41-17.32-12.24-4.9-4.82,3.81-3.88,6.55-3.54,3.52.43,7,1.07,10.47,1.81l-.34.88c-9-5.37-19.24-11.82-.72-10.64l-.26.79c-1.71-1.28-4-2.65-4.27-5,.24-4.18,19.35.21,22.33,1a104.67,104.67,0,0,0-14.4-2.05c-2.26,0-4.88-.42-7,.54-1.27,1.72,3.88,4.8,5.13,5.63l-1.63-.1a44.94,44.94,0,0,0-6,0,6.7,6.7,0,0,0-3.31.84c-.11.15-.09.1-.07.24,1.23,2,3.6,3.27,5.53,4.67,2.42,1.63,5.2,3.27,7.74,4.75-3.42-.69-18.3-4.32-20.48-2.23,0,.58.78,1.41,1.23,1.89,5,4.86,11.06,8.73,16.81,12.73Z"></path><path d="M83.84,364.27c22.36,1.28,44.61,3.85,66.85,6.38,22.2,2.81,44.49,5.41,66.35,10.26-5.5-1-11-2-16.55-2.78-38.65-5.5-77.79-10-116.65-13.86Z"></path><path d="M103.6,359.65c18.17.22,36.27,2.24,54.35,4,18.06,2,36.14,4,54,7.27-18-2.47-36.06-4.39-54.12-6.28s-36.12-3.94-54.25-5Z"></path><path d="M155.32,354.46c11.22.55,22.39,1.65,33.54,3s22.28,3.06,33.11,6.08l-4.13-.82c-20.32-3.62-42-5.78-62.52-8.26Z"></path><path d="M164.59,351a107.3,107.3,0,0,1,32.25,7.77c-10.48-3-21.57-5.46-32.25-7.77Z"></path><path d="M192.57,347.91a98.45,98.45,0,0,1,31.54,6.88c-10.39-2.73-21-5-31.54-6.88Z"></path><path d="M206.18,337.45a56.5,56.5,0,0,1,20,4.52c-6.75-1.38-13.34-2.9-20-4.52Z"></path><path d="M222.36,329.88A79.68,79.68,0,0,1,236.52,332a64.86,64.86,0,0,1,13.62,4.4c-3.93-1.22-9.77-2.48-13.84-3.42s-9.87-2.27-13.94-3.05Z"></path><path d="M225.48,318.81a49.25,49.25,0,0,1,17.44,6.09c-5.85-1.71-11.73-4-17.44-6.09Z"></path><path d="M347.59,400.27a104.15,104.15,0,0,0,8.59-8.74c2.05-2.24,4.21-4.53,5.43-7.35a5.69,5.69,0,0,0,.14-2.93c-.8-4-2.64-7.66-4.41-11.32-.46-1.17-1.48-2.38-1.51-3.7.06-2.8.17-6,2-8.26l.07.07a6.9,6.9,0,0,0-.93,2.85,19.27,19.27,0,0,0-.09,5.87,61.5,61.5,0,0,1,3.92,8.38c1,2.87,2.19,6.13,1.16,9.18-3.4,6.21-8.27,12.49-14.35,15.95Z"></path></g><path d="M245.58,357.68c2.62,2.93,6,5.06,9.2,7.34,8,5.59,17,10.14,25.36,15.17,1.69,1,3.39,2,5.06,3.09-1.78-.86-3.53-1.77-5.3-2.66-8.69-4.56-17.69-9.08-25.56-15-3.09-2.44-6.45-4.76-8.76-8Z" style="fill:#fff;opacity:0.30000000000000004"></path><path d="M242,402.37c10.43,2.07,26.51,4,37.17,5.69,3.48.42,20,3.27,23.24,3.21,4.7.15,9.4.08,14.1,0-4.7.35-9.4.61-14.11.59-7.84-.26-15.59-1.92-23.37-2.86-12.38-2-24.88-3.53-37-6.67Z" style="fill:#fff;opacity:0.30000000000000004"></path><path d="M213.09,368.27c5.57.75,11.13,1.38,16.56,3a50.11,50.11,0,0,1-16.56-3Z" style="fill:#fff;opacity:0.30000000000000004"></path></g></svg>